<?xml version="1.0" standalone="no"?>
<!DOCTYPE svg PUBLIC "-//W3C//DTD SVG 20010904//EN"
 "http://www.w3.org/TR/2001/REC-SVG-20010904/DTD/svg10.dtd">
<svg version="1.0" xmlns="http://www.w3.org/2000/svg"
 width="1690.000000pt" height="1690.000000pt" viewBox="0 0 1690.000000 1690.000000"
 preserveAspectRatio="xMidYMid meet">
<metadata>
Created by potrace 1.14, written by Peter Selinger 2001-2017
</metadata>
<g transform="translate(0.000000,1690.000000) scale(0.100000,-0.100000)"
fill="#000000" stroke="none">
<path d="M5735 16680 c-33 -4 -121 -10 -195 -13 -187 -8 -279 -29 -460 -107
-41 -18 -90 -34 -110 -35 -93 -8 -156 -17 -164 -25 -5 -5 -14 -6 -20 -4 -7 3
-52 -5 -100 -16 -48 -11 -91 -18 -96 -15 -5 3 -10 1 -12 -4 -1 -6 -16 -12 -33
-15 -16 -2 -30 -5 -30 -6 0 -2 -16 -6 -50 -14 -11 -2 -21 -5 -22 -6 -3 -3 -3
-3 -53 -14 -19 -5 -39 -11 -45 -14 -21 -13 -135 -50 -135 -44 0 3 -5 1 -12 -6
-7 -7 -20 -12 -30 -12 -10 0 -18 -5 -18 -10 0 -6 -3 -9 -7 -8 -17 3 -63 -15
-63 -25 0 -6 -3 -8 -6 -5 -7 8 -269 -112 -354 -162 -8 -5 -55 -32 -105 -61
-165 -95 -490 -322 -580 -405 -12 -11 -45 -39 -75 -64 -113 -93 -401 -374
-490 -479 -25 -29 -58 -68 -75 -85 -16 -18 -46 -52 -65 -75 -19 -24 -45 -55
-57 -69 -13 -13 -23 -28 -23 -31 0 -3 -13 -19 -28 -36 -47 -51 -219 -290 -312
-433 -49 -76 -93 -142 -97 -147 -5 -6 -29 -44 -54 -85 -24 -41 -48 -83 -54
-92 -13 -21 -102 -180 -132 -233 -12 -22 -31 -61 -43 -87 -13 -27 -26 -48 -31
-48 -5 0 -9 -8 -9 -19 0 -10 -8 -29 -19 -42 -10 -13 -22 -35 -26 -49 -4 -14
-15 -33 -24 -44 -9 -10 -15 -20 -13 -22 2 -3 -9 -30 -24 -62 -16 -31 -28 -60
-29 -63 0 -3 -10 -25 -22 -50 -49 -99 -101 -219 -96 -219 3 0 0 -6 -6 -13 -6
-8 -8 -17 -4 -20 3 -4 2 -7 -4 -7 -9 0 -18 -21 -28 -60 0 -3 -6 -15 -13 -27
-7 -13 -10 -23 -6 -23 3 0 1 -6 -5 -14 -7 -8 -13 -22 -16 -32 -2 -11 -15 -45
-29 -77 -14 -31 -26 -60 -27 -65 -1 -4 -6 -18 -11 -32 -5 -14 -11 -32 -13 -40
-2 -8 -13 -40 -25 -70 -12 -30 -23 -59 -24 -65 -1 -5 -15 -48 -31 -95 -16 -47
-30 -87 -30 -90 -3 -14 -58 -188 -65 -205 -5 -11 -13 -40 -19 -65 -14 -56 -16
-63 -35 -122 -8 -27 -13 -48 -10 -48 3 0 0 -10 -7 -21 -6 -12 -12 -31 -14 -43
-2 -11 -13 -57 -25 -101 -12 -44 -23 -87 -25 -95 -2 -8 -15 -67 -30 -130 -37
-158 -36 -152 -40 -180 -2 -14 -9 -47 -15 -75 -6 -27 -13 -61 -15 -75 -3 -14
-7 -36 -10 -50 -10 -46 -17 -85 -20 -107 -2 -12 -6 -36 -10 -53 -4 -17 -8 -41
-10 -53 -2 -12 -6 -31 -8 -43 -3 -11 -8 -47 -11 -79 -4 -32 -8 -61 -11 -64 -4
-7 -14 -78 -20 -141 -2 -19 -4 -35 -5 -35 -2 0 -7 -31 -15 -95 -3 -30 -8 -71
-11 -90 -3 -19 -7 -53 -9 -75 -3 -22 -7 -58 -9 -80 -3 -22 -8 -65 -11 -95 -3
-30 -7 -76 -10 -101 -7 -56 -14 -142 -20 -229 -2 -36 -7 -96 -9 -135 -37 -493
-37 -1244 -1 -1715 4 -41 8 -100 10 -130 6 -96 16 -204 21 -240 2 -19 6 -57 9
-85 5 -56 13 -122 21 -175 2 -19 7 -52 9 -74 5 -38 14 -108 20 -156 2 -14 6
-36 9 -50 2 -14 7 -45 11 -70 10 -68 20 -131 52 -295 8 -44 16 -91 18 -105 2
-14 4 -25 5 -25 2 0 7 -24 15 -70 4 -22 9 -43 11 -46 2 -4 6 -25 9 -47 3 -23
9 -52 15 -66 5 -15 8 -26 5 -26 -2 0 2 -18 10 -40 8 -22 12 -40 10 -40 -2 0 2
-18 10 -40 8 -22 13 -40 11 -40 -2 0 5 -33 15 -72 11 -40 21 -80 23 -88 2 -8
11 -42 21 -75 32 -115 36 -130 41 -154 3 -14 8 -29 12 -35 3 -6 7 -15 9 -21 8
-37 16 -63 53 -175 23 -69 43 -132 45 -140 1 -8 33 -96 70 -195 37 -99 71
-195 76 -212 6 -18 15 -33 21 -33 6 0 9 -3 6 -6 -5 -4 35 -111 84 -224 6 -14
12 -27 13 -30 17 -52 263 -549 325 -655 23 -38 48 -83 56 -100 8 -16 20 -39
27 -50 6 -11 31 -50 54 -88 24 -37 43 -70 43 -72 0 -2 35 -57 77 -121 43 -64
83 -123 88 -132 43 -70 161 -238 187 -266 10 -11 18 -24 18 -29 0 -5 8 -17 18
-26 9 -9 30 -34 46 -56 28 -38 135 -175 146 -185 3 -3 39 -45 80 -95 41 -49
94 -110 117 -135 23 -25 60 -65 83 -90 96 -104 214 -222 325 -325 65 -60 136
-127 157 -147 21 -20 38 -33 38 -30 0 4 4 2 8 -4 13 -20 200 -174 296 -245 28
-21 58 -44 66 -51 18 -16 181 -133 240 -173 25 -16 47 -33 48 -37 2 -5 7 -8
12 -8 5 0 48 -26 97 -57 118 -77 118 -77 193 -120 36 -20 67 -39 70 -43 3 -3
16 -11 30 -18 14 -6 57 -30 95 -52 124 -70 403 -208 409 -202 3 3 6 0 6 -7 0
-7 5 -9 10 -6 6 3 10 1 10 -4 0 -6 9 -11 20 -11 11 0 20 -4 20 -8 0 -5 6 -9
13 -9 10 -1 80 -30 262 -109 44 -19 149 -58 157 -59 3 0 10 -3 14 -7 4 -5 18
-8 31 -8 12 0 23 -4 23 -10 0 -5 3 -9 8 -9 4 1 9 0 12 -1 3 -1 12 -3 20 -5 8
-2 56 -18 105 -35 50 -18 101 -34 114 -36 13 -3 32 -9 41 -14 10 -5 30 -12 46
-15 16 -3 71 -18 123 -34 52 -17 98 -28 102 -25 4 2 10 0 14 -6 3 -5 19 -10
35 -10 16 0 32 -5 35 -11 4 -6 13 -8 20 -5 7 2 16 2 19 -2 4 -3 14 -7 24 -8 9
-1 69 -14 132 -28 113 -27 151 -35 200 -41 14 -2 25 -4 25 -5 0 -3 19 -6 80
-14 22 -3 51 -9 65 -12 14 -3 36 -7 50 -9 14 -2 88 -13 165 -24 190 -27 308
-40 430 -46 33 -2 60 -4 60 -5 0 -6 366 -18 555 -19 203 -1 695 20 695 28 0 2
29 4 65 6 77 4 128 10 325 36 83 11 166 22 185 25 19 2 42 6 50 9 8 2 38 7 65
11 28 3 59 8 70 10 11 2 37 6 59 9 21 3 102 19 180 36 77 16 156 32 175 35 19
3 44 10 57 14 12 5 25 6 28 3 3 -3 12 -1 19 5 8 7 17 9 20 5 4 -3 12 -2 19 4
7 5 22 10 33 10 11 1 74 16 140 34 66 18 128 32 138 31 9 0 17 3 17 9 0 5 3 8
8 7 9 -2 68 10 102 22 14 4 81 25 150 45 69 20 179 55 245 77 66 22 127 41
135 43 16 4 154 54 275 99 39 15 77 28 85 31 8 2 60 22 115 45 55 22 107 42
115 45 22 5 232 95 380 162 56 26 101 45 110 48 28 8 492 236 532 262 21 12
44 23 52 23 8 0 16 3 18 8 2 4 28 19 58 34 83 41 183 96 197 108 7 5 15 10 19
10 3 0 19 9 35 21 16 11 29 17 29 12 0 -4 4 -3 8 2 4 6 27 21 52 34 25 14 112
64 193 113 82 48 152 88 158 88 5 0 9 4 9 8 0 5 19 18 43 31 52 27 77 43 94
58 7 6 22 15 33 18 11 3 20 11 20 16 0 5 5 9 10 9 12 0 94 52 98 63 2 4 10 7
17 7 8 0 20 6 27 13 7 6 114 79 237 162 123 82 229 154 235 160 6 5 40 30 76
54 36 25 83 60 104 78 22 18 44 33 48 33 5 0 39 24 76 53 37 29 139 108 227
175 170 130 238 183 270 210 11 9 53 43 93 75 80 64 108 87 126 102 6 6 34 28
61 50 28 22 55 45 60 52 6 6 39 35 75 65 36 29 79 65 95 80 17 15 39 35 51 45
112 97 152 132 180 158 18 17 67 62 110 100 94 85 163 149 186 172 10 10 21
21 25 25 68 64 324 311 416 403 l122 120 0 3888 c1 2138 -2 3887 -5 3887 -6 0
-106 -107 -170 -181 -16 -19 -52 -59 -82 -90 -29 -30 -84 -91 -123 -134 -38
-44 -88 -98 -110 -121 -22 -24 -78 -84 -125 -135 -47 -51 -103 -112 -125 -135
-22 -23 -94 -99 -160 -169 -164 -175 -868 -880 -1040 -1042 -232 -219 -260
-245 -341 -318 -43 -38 -92 -83 -109 -99 -16 -15 -61 -56 -100 -90 -38 -33
-76 -68 -85 -76 -9 -8 -47 -42 -85 -75 -39 -33 -72 -62 -75 -65 -7 -9 -186
-160 -224 -190 -17 -13 -38 -31 -46 -40 -8 -8 -33 -29 -55 -45 -21 -16 -46
-36 -55 -45 -9 -8 -34 -28 -55 -45 -42 -31 -79 -62 -101 -82 -7 -7 -16 -13
-20 -13 -3 0 -14 -8 -23 -18 -9 -10 -43 -38 -76 -63 -33 -24 -64 -47 -70 -52
-5 -4 -28 -21 -50 -38 -22 -16 -47 -35 -55 -42 -9 -7 -42 -32 -75 -57 -33 -24
-66 -49 -72 -56 -7 -7 -43 -33 -80 -59 -38 -25 -84 -57 -103 -70 -19 -13 -45
-33 -57 -45 -12 -11 -29 -20 -38 -20 -8 0 -15 -4 -15 -9 0 -6 -18 -20 -40 -32
-22 -13 -40 -26 -40 -31 0 -4 -4 -8 -9 -8 -6 0 -38 -19 -73 -43 -97 -65 -272
-175 -281 -176 -4 0 -13 -5 -20 -11 -16 -14 -136 -90 -142 -90 -2 0 -42 -22
-87 -49 -79 -46 -325 -174 -451 -234 l-58 -27 29 42 c40 59 157 286 193 378
31 75 98 330 119 448 6 35 26 94 45 131 45 89 106 313 135 491 4 30 9 251 9
490 1 448 -5 551 -43 675 -9 28 -16 75 -16 105 0 30 -5 84 -10 120 -5 36 -10
212 -10 392 -1 180 -5 353 -10 384 -5 30 -10 115 -11 187 -4 278 -95 703 -226
1061 -35 96 -167 382 -239 521 -9 17 -39 73 -66 125 -27 52 -53 100 -57 105
-5 6 -26 44 -48 85 -23 41 -61 110 -87 153 -25 42 -65 116 -89 165 -24 48 -64
119 -89 157 -25 39 -64 105 -87 147 -23 42 -72 118 -109 167 -37 50 -96 132
-132 183 -76 109 -185 227 -290 312 -41 33 -120 104 -176 156 -55 52 -150 133
-210 180 -60 46 -132 105 -161 131 -28 25 -85 68 -125 94 -40 26 -116 89 -168
140 -52 51 -120 110 -150 132 -103 74 -360 224 -508 298 -143 71 -446 185
-527 199 -37 6 -110 26 -360 96 -55 16 -170 43 -255 61 -132 28 -176 33 -300
33 -123 1 -156 5 -215 24 -151 50 -378 63 -531 32 -53 -10 -71 -10 -126 4
-136 34 -367 45 -523 26z"/>
</g>
</svg>
